<svg width="1144" height="445" viewBox="0 0 1144 445" fill="none" xmlns="http://www.w3.org/2000/svg">
<mask id="path-1-inside-1_1206_1834" fill="white">
<path fill-rule="evenodd" clip-rule="evenodd" d="M218.011 29.4504V58.9017L207.882 65.8148C195.43 74.316 170.656 93.5605 163.26 100.479C158.35 105.071 158.607 104.939 165.748 99.2019C180.767 87.1366 201.647 72.3954 212.287 66.3472L218.011 63.0926V142.043V220.993H139.784H61.5578L63.7817 217.226C74.7878 198.59 91.2362 175.423 104.793 159.467C107.493 156.289 109.462 153.691 109.169 153.691C106.946 153.691 72.2185 198.152 62.2895 213.711L57.6416 220.993H28.8213C3.86646 220.993 0 221.195 0 222.5C0 223.804 3.75895 224.007 27.8557 224.007H55.7113L50.5896 232.756C29.1588 269.37 14.4475 312.682 13.1862 342.882C11.1395 391.907 33.8893 424.057 79.1411 436.089C87.1876 438.229 90.179 438.469 108.508 438.451C130.615 438.428 138.715 437.385 160.084 431.808C176.292 427.577 190.226 422.638 204.778 415.966L217.514 410.127L217.785 427.564C218.043 444.103 218.158 445 220.003 445C221.855 445 221.962 444.093 222.22 426.297L222.491 407.593L232.944 401.63C298.375 364.303 358.955 302.774 397.935 234.052L402.778 225.514L421.889 225.24C440.176 224.98 441 224.882 441 222.98C441 221.075 440.271 220.993 423.145 220.993H405.289L411.32 207.683C432.379 161.208 439.887 111.772 430.954 78.4014C424.684 54.9791 410.86 35.7065 392.828 25.2515C370.619 12.3726 337.066 10.453 302.537 20.0843C280.391 26.26 257.054 36.1967 235.432 48.6557L222.491 56.1132L222.226 28.0561C221.97 0.832735 221.904 0 219.986 0C218.061 0 218.011 0.746347 218.011 29.4504ZM315.569 29.0807C289.817 31.8612 262.021 40.5322 234.188 54.4688L221.993 60.5742V139.133V217.692L267.492 171.619C308.264 130.334 313.149 125.706 314.509 127.078C315.869 128.45 311.271 133.41 270.258 174.802L224.49 220.993L291.183 220.983L357.877 220.973L363.973 211.189C384.244 178.653 396.304 150.731 402.305 122.436C405.258 108.511 405.463 84.2265 402.711 74.3341C399.747 63.6822 395.461 56.4196 387.287 48.1986C378.701 39.5628 369.645 34.4699 356.824 31.0666C347.883 28.693 328.017 27.7367 315.569 29.0807ZM55.342 232.861C44.2662 255.115 35.8036 278.987 31.2075 300.943C28.7904 312.491 28.4868 316.11 28.4321 334.001C28.3773 352.099 28.5983 354.884 30.6639 362.082C37.1625 384.73 51.5472 400.094 72.2245 406.475C81.3461 409.289 108.376 409.013 122.384 405.963C149.495 400.059 183.456 384.678 213.763 364.578L218.971 361.123L218.989 293.825L219.007 226.526L173.237 272.703C136.701 309.563 127.218 318.627 126.228 317.628C125.237 316.628 134.219 307.059 170.749 270.191L216.51 224.007H138.13H59.749L55.342 232.861ZM221.993 291.871C221.993 345.092 222.247 358.577 223.238 357.975C227.245 355.542 248.126 339.399 258.328 330.845C283.729 309.549 306.718 286.399 328.017 260.664C336.15 250.838 354.393 226.659 354.393 225.704C354.393 225.324 324.603 225.011 288.193 225.011H221.993V291.871Z"/>
</mask>
<path fill-rule="evenodd" clip-rule="evenodd" d="M218.011 29.4504V58.9017L207.882 65.8148C195.43 74.316 170.656 93.5605 163.26 100.479C158.35 105.071 158.607 104.939 165.748 99.2019C180.767 87.1366 201.647 72.3954 212.287 66.3472L218.011 63.0926V142.043V220.993H139.784H61.5578L63.7817 217.226C74.7878 198.59 91.2362 175.423 104.793 159.467C107.493 156.289 109.462 153.691 109.169 153.691C106.946 153.691 72.2185 198.152 62.2895 213.711L57.6416 220.993H28.8213C3.86646 220.993 0 221.195 0 222.5C0 223.804 3.75895 224.007 27.8557 224.007H55.7113L50.5896 232.756C29.1588 269.37 14.4475 312.682 13.1862 342.882C11.1395 391.907 33.8893 424.057 79.1411 436.089C87.1876 438.229 90.179 438.469 108.508 438.451C130.615 438.428 138.715 437.385 160.084 431.808C176.292 427.577 190.226 422.638 204.778 415.966L217.514 410.127L217.785 427.564C218.043 444.103 218.158 445 220.003 445C221.855 445 221.962 444.093 222.22 426.297L222.491 407.593L232.944 401.63C298.375 364.303 358.955 302.774 397.935 234.052L402.778 225.514L421.889 225.24C440.176 224.98 441 224.882 441 222.98C441 221.075 440.271 220.993 423.145 220.993H405.289L411.32 207.683C432.379 161.208 439.887 111.772 430.954 78.4014C424.684 54.9791 410.86 35.7065 392.828 25.2515C370.619 12.3726 337.066 10.453 302.537 20.0843C280.391 26.26 257.054 36.1967 235.432 48.6557L222.491 56.1132L222.226 28.0561C221.97 0.832735 221.904 0 219.986 0C218.061 0 218.011 0.746347 218.011 29.4504ZM315.569 29.0807C289.817 31.8612 262.021 40.5322 234.188 54.4688L221.993 60.5742V139.133V217.692L267.492 171.619C308.264 130.334 313.149 125.706 314.509 127.078C315.869 128.45 311.271 133.41 270.258 174.802L224.49 220.993L291.183 220.983L357.877 220.973L363.973 211.189C384.244 178.653 396.304 150.731 402.305 122.436C405.258 108.511 405.463 84.2265 402.711 74.3341C399.747 63.6822 395.461 56.4196 387.287 48.1986C378.701 39.5628 369.645 34.4699 356.824 31.0666C347.883 28.693 328.017 27.7367 315.569 29.0807ZM55.342 232.861C44.2662 255.115 35.8036 278.987 31.2075 300.943C28.7904 312.491 28.4868 316.11 28.4321 334.001C28.3773 352.099 28.5983 354.884 30.6639 362.082C37.1625 384.73 51.5472 400.094 72.2245 406.475C81.3461 409.289 108.376 409.013 122.384 405.963C149.495 400.059 183.456 384.678 213.763 364.578L218.971 361.123L218.989 293.825L219.007 226.526L173.237 272.703C136.701 309.563 127.218 318.627 126.228 317.628C125.237 316.628 134.219 307.059 170.749 270.191L216.51 224.007H138.13H59.749L55.342 232.861ZM221.993 291.871C221.993 345.092 222.247 358.577 223.238 357.975C227.245 355.542 248.126 339.399 258.328 330.845C283.729 309.549 306.718 286.399 328.017 260.664C336.15 250.838 354.393 226.659 354.393 225.704C354.393 225.324 324.603 225.011 288.193 225.011H221.993V291.871Z" fill="#182D42"/>
<path d="M218.011 58.9017L220.266 62.2056L222.011 61.0145V58.9017H218.011ZM207.882 65.8148L205.627 62.5109L205.627 62.5112L207.882 65.8148ZM163.26 100.479L160.527 97.5573L160.527 97.5574L163.26 100.479ZM165.748 99.2019L168.253 102.32L168.253 102.32L165.748 99.2019ZM212.287 66.3472L214.264 69.8246L214.264 69.8244L212.287 66.3472ZM218.011 63.0926H222.011V56.2168L216.034 59.6154L218.011 63.0926ZM218.011 220.993V224.993H222.011V220.993H218.011ZM61.5578 220.993L58.1133 218.96L54.5512 224.993H61.5578V220.993ZM63.7817 217.226L60.3375 215.192L60.3372 215.193L63.7817 217.226ZM104.793 159.467L101.745 156.877L101.744 156.877L104.793 159.467ZM62.2895 213.711L65.6613 215.862L65.6614 215.862L62.2895 213.711ZM57.6416 220.993V224.993H59.8339L61.0134 223.145L57.6416 220.993ZM55.7113 224.007L59.1634 226.028L62.6879 220.007H55.7113V224.007ZM50.5896 232.756L47.1375 230.735L47.1374 230.735L50.5896 232.756ZM13.1862 342.882L9.18968 342.715L9.18968 342.715L13.1862 342.882ZM79.1411 436.089L80.169 432.223L80.1689 432.223L79.1411 436.089ZM108.508 438.451L108.512 442.451L108.512 442.451L108.508 438.451ZM160.084 431.808L161.094 435.678L161.094 435.678L160.084 431.808ZM204.778 415.966L203.111 412.329L203.111 412.329L204.778 415.966ZM217.514 410.127L221.513 410.065L221.418 403.937L215.847 406.491L217.514 410.127ZM217.785 427.564L213.786 427.626L213.786 427.626L217.785 427.564ZM222.22 426.297L226.22 426.355L226.22 426.355L222.22 426.297ZM222.491 407.593L220.509 404.118L218.524 405.251L218.491 407.535L222.491 407.593ZM232.944 401.63L234.926 405.105L234.926 405.105L232.944 401.63ZM397.935 234.052L401.415 236.025L401.415 236.025L397.935 234.052ZM402.778 225.514L402.721 221.514L400.43 221.547L399.299 223.54L402.778 225.514ZM421.889 225.24L421.832 221.241L421.831 221.241L421.889 225.24ZM405.289 220.993L401.646 219.342L399.085 224.993H405.289V220.993ZM411.32 207.683L407.676 206.032L407.676 206.033L411.32 207.683ZM430.954 78.4014L427.09 79.4357L427.09 79.4358L430.954 78.4014ZM392.828 25.2515L390.822 28.7118L390.822 28.7119L392.828 25.2515ZM302.537 20.0843L303.611 23.9373L303.612 23.9372L302.537 20.0843ZM235.432 48.6557L233.435 45.1899L233.435 45.1899L235.432 48.6557ZM222.491 56.1132L218.491 56.1509L218.556 62.9975L224.488 59.5789L222.491 56.1132ZM222.226 28.0561L218.226 28.0937L218.226 28.0938L222.226 28.0561ZM315.569 29.0807L315.139 25.1038L315.139 25.1038L315.569 29.0807ZM234.188 54.4688L235.979 58.0456L235.979 58.0455L234.188 54.4688ZM221.993 60.5742L220.202 56.9975L217.993 58.1036V60.5742H221.993ZM221.993 217.692H217.993V227.436L224.839 220.503L221.993 217.692ZM267.492 171.619L264.646 168.809L264.646 168.809L267.492 171.619ZM314.509 127.078L311.667 129.894L311.669 129.895L314.509 127.078ZM270.258 174.802L267.417 171.986L267.417 171.986L270.258 174.802ZM224.49 220.993L221.648 218.178L214.894 224.995L224.49 224.993L224.49 220.993ZM291.183 220.983L291.183 216.983L291.183 216.983L291.183 220.983ZM357.877 220.973L357.878 224.973L360.098 224.973L361.272 223.089L357.877 220.973ZM363.973 211.189L367.368 213.305L367.368 213.304L363.973 211.189ZM402.305 122.436L398.392 121.606L398.392 121.606L402.305 122.436ZM402.711 74.3341L398.857 75.4062L398.857 75.4063L402.711 74.3341ZM387.287 48.1986L384.45 51.0189L384.45 51.0189L387.287 48.1986ZM356.824 31.0666L355.797 34.9327L355.798 34.9327L356.824 31.0666ZM55.342 232.861L51.7611 231.078L51.761 231.078L55.342 232.861ZM31.2075 300.943L27.2923 300.123L27.2923 300.123L31.2075 300.943ZM28.4321 334.001L24.4321 333.989L24.4321 333.989L28.4321 334.001ZM30.6639 362.082L34.5088 360.979L34.5088 360.979L30.6639 362.082ZM72.2245 406.475L71.045 410.297L71.0454 410.297L72.2245 406.475ZM122.384 405.963L121.533 402.054L121.533 402.054L122.384 405.963ZM213.763 364.578L215.973 367.911L215.973 367.911L213.763 364.578ZM218.971 361.123L221.182 364.456L222.97 363.27L222.971 361.124L218.971 361.123ZM219.007 226.526L223.007 226.527L223.009 216.806L216.166 223.71L219.007 226.526ZM173.237 272.703L176.078 275.519L176.078 275.519L173.237 272.703ZM170.749 270.191L167.907 267.376L167.907 267.376L170.749 270.191ZM216.51 224.007L219.352 226.822L226.104 220.007H216.51V224.007ZM59.749 224.007V220.007H57.2719L56.1681 222.224L59.749 224.007ZM223.238 357.975L221.162 354.556L221.161 354.556L223.238 357.975ZM258.328 330.845L255.759 327.78L255.758 327.78L258.328 330.845ZM328.017 260.664L324.936 258.113L324.936 258.113L328.017 260.664ZM221.993 225.011V221.011H217.993V225.011H221.993ZM214.011 29.4504V58.9017H222.011V29.4504H214.011ZM215.756 55.5979L205.627 62.5109L210.137 69.1187L220.266 62.2056L215.756 55.5979ZM205.627 62.5112C193.079 71.0776 168.126 90.4502 160.527 97.5573L165.992 103.4C173.186 96.6708 197.781 77.5544 210.138 69.1184L205.627 62.5112ZM160.527 97.5574C159.306 98.6993 158.367 99.5845 157.773 100.167C157.507 100.427 157.198 100.736 156.97 101.002C156.908 101.074 156.797 101.207 156.679 101.375C156.62 101.458 156.522 101.602 156.42 101.789C156.345 101.928 156.128 102.337 156.01 102.907C155.915 103.362 155.66 105.066 157.048 106.506C158.356 107.862 159.964 107.748 160.326 107.713C161.18 107.629 161.811 107.272 161.811 107.272C162.258 107.043 162.728 106.687 162.921 106.543C163.238 106.306 163.643 105.993 164.127 105.613C165.098 104.85 166.47 103.753 168.253 102.32L163.243 96.0834C161.456 97.5189 160.117 98.5897 159.186 99.3216C158.718 99.6892 158.373 99.955 158.135 100.133C157.773 100.403 157.883 100.296 158.158 100.155C158.225 100.121 158.353 100.057 158.525 99.9917C158.652 99.9428 159.033 99.801 159.549 99.7506C159.903 99.7161 161.504 99.6007 162.807 100.953C164.192 102.389 163.935 104.087 163.843 104.532C163.726 105.093 163.514 105.49 163.446 105.615C163.352 105.788 163.265 105.916 163.22 105.98C163.128 106.11 163.055 106.195 163.043 106.209C163.013 106.244 163.084 106.163 163.373 105.88C163.888 105.375 164.758 104.554 165.992 103.4L160.527 97.5574ZM168.253 102.32C183.189 90.322 203.884 75.7254 214.264 69.8246L210.31 62.8698C199.411 69.0654 178.345 83.9513 163.243 96.0835L168.253 102.32ZM214.264 69.8244L219.988 66.5698L216.034 59.6154L210.31 62.87L214.264 69.8244ZM214.011 63.0926V142.043H222.011V63.0926H214.011ZM214.011 142.043V220.993H222.011V142.043H214.011ZM218.011 216.993H139.784V224.993H218.011V216.993ZM139.784 216.993H61.5578V224.993H139.784V216.993ZM65.0023 223.027L67.2262 219.26L60.3372 215.193L58.1133 218.96L65.0023 223.027ZM67.226 219.26C78.1201 200.813 94.4371 177.834 107.841 162.057L101.744 156.877C88.0354 173.013 71.4556 196.366 60.3375 215.192L67.226 219.26ZM107.841 162.057C109.221 160.433 110.439 158.928 111.291 157.803C111.705 157.257 112.09 156.725 112.368 156.286C112.478 156.113 112.71 155.74 112.886 155.302C112.926 155.204 113.241 154.475 113.193 153.52C113.165 152.974 112.993 151.892 112.086 150.94C111.115 149.92 109.922 149.691 109.169 149.691V157.691C108.434 157.691 107.255 157.467 106.293 156.457C105.396 155.514 105.229 154.447 105.203 153.922C105.157 153.006 105.456 152.336 105.465 152.315C105.579 152.032 105.685 151.887 105.608 152.007C105.515 152.154 105.294 152.471 104.915 152.972C104.181 153.94 103.064 155.324 101.745 156.877L107.841 162.057ZM109.169 149.691C108.371 149.691 107.76 149.921 107.476 150.042C107.146 150.182 106.88 150.341 106.699 150.457C106.339 150.69 106.014 150.955 105.761 151.175C105.238 151.63 104.643 152.224 104.021 152.879C102.76 154.209 101.124 156.076 99.2458 158.301C95.477 162.766 90.583 168.853 85.4666 175.404C75.2663 188.463 63.9954 203.602 58.9176 211.559L65.6614 215.862C70.5126 208.26 81.5699 193.389 91.7713 180.328C96.8558 173.819 101.681 167.818 105.359 163.461C107.205 161.274 108.724 159.546 109.826 158.384C110.386 157.793 110.775 157.416 111.01 157.212C111.135 157.104 111.133 157.117 111.035 157.181C110.985 157.212 110.835 157.307 110.607 157.404C110.423 157.482 109.898 157.691 109.169 157.691V149.691ZM58.9177 211.559L54.2698 218.841L61.0134 223.145L65.6613 215.862L58.9177 211.559ZM57.6416 216.993H28.8213V224.993H57.6416V216.993ZM28.8213 216.993C16.3854 216.993 9.05833 217.042 4.84378 217.263C2.80809 217.369 1.16034 217.527 -0.0451522 217.851C-0.629465 218.009 -1.54623 218.313 -2.36544 219.004C-3.39834 219.876 -4 221.13 -4 222.5H4C4 223.543 3.51917 224.506 2.79519 225.117C2.28491 225.548 1.86517 225.622 2.03326 225.577C2.33257 225.496 3.21111 225.359 5.26139 225.252C9.21877 225.045 16.3024 224.993 28.8213 224.993V216.993ZM-4 222.5C-4 223.828 -3.43433 225.072 -2.41647 225.957C-1.60337 226.664 -0.688988 226.978 -0.106251 227.14C1.08774 227.471 2.70614 227.63 4.67556 227.737C8.76035 227.957 15.85 228.007 27.8557 228.007V220.007C15.7646 220.007 8.92643 219.955 5.10756 219.748C3.12516 219.641 2.29778 219.505 2.03394 219.431C1.88777 219.391 2.32022 219.474 2.83364 219.921C3.5518 220.546 4 221.498 4 222.5H-4ZM27.8557 228.007H55.7113V220.007H27.8557V228.007ZM52.2593 221.986L47.1375 230.735L54.0416 234.777L59.1634 226.028L52.2593 221.986ZM47.1374 230.735C25.5021 267.698 10.487 311.652 9.18968 342.715L17.1827 343.049C18.4079 313.712 32.8154 271.041 54.0417 234.777L47.1374 230.735ZM9.18968 342.715C8.13923 367.877 13.4414 389.106 25.1615 405.669C36.8952 422.25 54.7748 433.749 78.1132 439.955L80.1689 432.223C58.2556 426.397 42.1344 415.805 31.6919 401.047C21.2358 386.271 16.1865 366.913 17.1827 343.049L9.18968 342.715ZM78.1132 439.955C86.7041 442.239 90.149 442.469 108.512 442.451L108.504 434.451C90.2091 434.469 87.6711 434.218 80.169 432.223L78.1132 439.955ZM108.512 442.451C130.958 442.428 139.396 441.341 161.094 435.678L159.074 427.937C138.034 433.429 130.271 434.429 108.504 434.451L108.512 442.451ZM161.094 435.678C177.518 431.391 191.672 426.375 206.445 419.602L203.111 412.329C188.78 418.9 175.067 423.763 159.074 427.937L161.094 435.678ZM206.445 419.602L219.18 413.763L215.847 406.491L203.111 412.329L206.445 419.602ZM213.514 410.19L213.786 427.626L221.785 427.501L221.513 410.065L213.514 410.19ZM213.786 427.626C213.913 435.757 214.003 440.415 214.331 442.989C214.474 444.115 214.744 445.793 215.792 447.102C217.272 448.95 219.292 449 220.003 449V441C219.792 441 221.105 440.938 222.037 442.101C222.536 442.725 222.415 443.145 222.267 441.979C222.011 439.969 221.916 435.91 221.785 427.501L213.786 427.626ZM220.003 449C220.747 449 222.816 448.936 224.285 446.992C225.285 445.67 225.541 443.977 225.682 442.793C226.003 440.078 226.093 435.121 226.22 426.355L218.221 426.239C218.09 435.268 217.997 439.663 217.737 441.851C217.587 443.118 217.453 442.764 217.904 442.168C218.824 440.95 220.186 441 220.003 441V449ZM226.22 426.355L226.491 407.651L218.491 407.535L218.221 426.239L226.22 426.355ZM224.473 411.067L234.926 405.105L230.962 398.156L220.509 404.118L224.473 411.067ZM234.926 405.105C301.013 367.403 362.097 305.341 401.415 236.025L394.456 232.078C355.813 300.206 295.737 361.203 230.962 398.156L234.926 405.105ZM401.415 236.025L406.258 227.487L399.299 223.54L394.456 232.078L401.415 236.025ZM402.835 229.513L421.946 229.24L421.831 221.241L402.721 221.514L402.835 229.513ZM421.946 229.24C430.955 229.112 436.016 229.024 438.772 228.698C439.97 228.556 441.696 228.297 443.032 227.263C444.975 225.761 445 223.659 445 222.98H437C437 223.253 436.922 221.875 438.139 220.935C438.749 220.462 439.126 220.6 437.832 220.753C435.604 221.017 431.11 221.109 421.832 221.241L421.946 229.24ZM445 222.98C445 222.408 445.022 220.305 443.156 218.773C441.807 217.667 440.058 217.421 438.937 217.297C436.331 217.007 431.562 216.993 423.145 216.993V224.993C431.854 224.993 436.013 225.021 438.052 225.248C439.254 225.381 438.758 225.514 438.081 224.958C436.887 223.978 437 222.599 437 222.98H445ZM423.145 216.993H405.289V224.993H423.145V216.993ZM408.932 222.644L414.963 209.334L407.676 206.033L401.646 219.342L408.932 222.644ZM414.963 209.334C436.228 162.404 444.081 111.972 434.818 77.367L427.09 79.4358C435.693 111.573 428.53 160.011 407.676 206.032L414.963 209.334ZM434.818 77.3671C428.323 53.1026 413.932 32.864 394.835 21.7911L390.822 28.7119C407.788 38.549 421.045 56.8556 427.09 79.4357L434.818 77.3671ZM394.835 21.7912C371.374 8.18653 336.61 6.42755 301.462 16.2313L303.612 23.9372C337.523 14.4784 369.864 16.5587 390.822 28.7118L394.835 21.7912ZM301.462 16.2313C278.968 22.5043 255.323 32.5779 233.435 45.1899L237.429 52.1215C258.786 39.8155 281.815 30.0158 303.611 23.9373L301.462 16.2313ZM233.435 45.1899L220.494 52.6474L224.488 59.5789L237.429 52.1214L233.435 45.1899ZM226.491 56.0754L226.226 28.0183L218.226 28.0938L218.491 56.1509L226.491 56.0754ZM226.226 28.0185C226.099 14.5037 226.019 7.29268 225.717 3.50093C225.639 2.53067 225.54 1.67481 225.397 0.939288C225.263 0.243402 225.045 -0.597873 224.605 -1.38808C224.098 -2.30078 223.295 -3.14011 222.136 -3.61376C221.167 -4.00962 220.266 -4 219.986 -4V4C220.186 4 219.706 4.03564 219.109 3.79166C218.322 3.46989 217.841 2.90831 217.613 2.49904C217.454 2.21227 217.474 2.10012 217.543 2.45889C217.605 2.77802 217.675 3.30235 217.742 4.13764C218.016 7.5681 218.098 14.3851 218.226 28.0937L226.226 28.0185ZM219.986 -4C219.733 -4 218.81 -4.01593 217.825 -3.6103C216.632 -3.1187 215.827 -2.24185 215.333 -1.31135C214.907 -0.509291 214.702 0.345042 214.576 1.05354C214.444 1.80491 214.353 2.68558 214.286 3.69356C214.021 7.64066 214.011 15.1924 214.011 29.4504H222.011C222.011 15.0043 222.026 7.83086 222.268 4.22879C222.327 3.34947 222.393 2.79135 222.454 2.44614C222.523 2.05804 222.549 2.15799 222.398 2.44158C222.179 2.85361 221.694 3.44791 220.872 3.78656C220.259 4.03925 219.758 4 219.986 4V-4ZM315.139 25.1038C288.828 27.9447 260.572 36.7839 232.397 50.8921L235.979 58.0455C263.469 44.2805 290.805 35.7777 315.998 33.0576L315.139 25.1038ZM232.397 50.892L220.202 56.9975L223.784 64.151L235.979 58.0456L232.397 50.892ZM217.993 60.5742V139.133H225.993V60.5742H217.993ZM217.993 139.133V217.692H225.993V139.133H217.993ZM224.839 220.503L270.338 174.43L264.646 168.809L219.147 214.882L224.839 220.503ZM270.338 174.43C290.747 153.764 302.104 142.345 308.531 136.256C311.791 133.168 313.595 131.633 314.591 130.947C315.136 130.572 315.073 130.713 314.633 130.811C314.348 130.873 313.829 130.935 313.195 130.769C312.528 130.595 312.015 130.244 311.667 129.894L317.35 124.262C316.832 123.74 316.122 123.265 315.214 123.028C314.339 122.8 313.536 122.86 312.907 122.999C311.78 123.248 310.794 123.848 310.053 124.359C308.477 125.445 306.257 127.39 303.029 130.448C296.481 136.652 285.009 148.189 264.646 168.809L270.338 174.43ZM311.669 129.895C311.318 129.541 310.978 129.029 310.811 128.374C310.652 127.753 310.712 127.249 310.771 126.975C310.863 126.553 310.994 126.503 310.621 127.055C309.935 128.071 308.408 129.904 305.341 133.213C299.291 139.737 287.946 151.268 267.417 171.986L273.1 177.617C293.584 156.944 305.044 145.298 311.207 138.652C314.245 135.375 316.176 133.125 317.252 131.531C317.759 130.779 318.346 129.793 318.589 128.675C318.724 128.054 318.783 127.261 318.562 126.397C318.333 125.498 317.869 124.786 317.349 124.261L311.669 129.895ZM267.417 171.986L221.648 218.178L227.331 223.809L273.1 177.617L267.417 171.986ZM224.49 224.993L291.184 224.983L291.183 216.983L224.489 216.993L224.49 224.993ZM291.184 224.983L357.878 224.973L357.876 216.973L291.183 216.983L291.184 224.983ZM361.272 223.089L367.368 213.305L360.578 209.074L354.482 218.858L361.272 223.089ZM367.368 213.304C387.81 180.494 400.094 152.138 406.217 123.266L398.392 121.606C392.513 149.325 380.679 176.812 360.578 209.074L367.368 213.304ZM406.217 123.266C407.77 115.948 408.57 106.106 408.647 96.9065C408.724 87.7932 408.099 78.7776 406.564 73.2618L398.857 75.4063C400.075 79.7831 400.723 87.8557 400.648 96.839C400.572 105.736 399.793 114.999 398.392 121.606L406.217 123.266ZM406.564 73.2619C403.408 61.9172 398.756 54.0606 390.123 45.3783L384.45 51.0189C392.165 58.7785 396.086 65.4472 398.857 75.4062L406.564 73.2619ZM390.123 45.3784C380.993 36.1952 371.293 30.769 357.85 27.2005L355.798 34.9327C367.996 38.1708 376.408 42.9304 384.45 51.0189L390.123 45.3784ZM357.85 27.2006C352.963 25.903 345.422 25.0557 337.704 24.6841C329.933 24.31 321.634 24.4026 315.139 25.1038L315.998 33.0576C321.952 32.4148 329.811 32.3134 337.32 32.6749C344.882 33.0389 351.744 33.8566 355.797 34.9327L357.85 27.2006ZM51.761 231.078C40.5495 253.605 31.9654 277.8 27.2923 300.123L35.1226 301.762C39.6418 280.174 47.983 256.624 58.923 234.643L51.761 231.078ZM27.2923 300.123C24.7991 312.036 24.4873 315.95 24.4321 333.989L32.432 334.013C32.4863 316.269 32.7818 312.947 35.1226 301.762L27.2923 300.123ZM24.4321 333.989C24.3773 352.082 24.5801 355.383 26.8191 363.186L34.5088 360.979C32.6165 354.385 32.3773 352.117 32.432 334.013L24.4321 333.989ZM26.8191 363.186C33.6508 386.995 48.9469 403.478 71.045 410.297L73.4039 402.653C54.1475 396.71 40.6741 382.466 34.5088 360.979L26.8191 363.186ZM71.0454 410.297C76.2659 411.907 85.8731 412.516 95.5128 412.418C105.29 412.318 115.854 411.479 123.235 409.871L121.533 402.054C114.907 403.497 104.952 404.321 95.4312 404.418C85.7734 404.517 77.3046 403.856 73.4035 402.653L71.0454 410.297ZM123.235 409.871C150.956 403.835 185.375 388.205 215.973 367.911L211.552 361.244C181.537 381.151 148.034 396.283 121.533 402.054L123.235 409.871ZM215.973 367.911L221.182 364.456L216.76 357.79L211.552 361.244L215.973 367.911ZM222.971 361.124L222.989 293.826L214.989 293.823L214.971 361.122L222.971 361.124ZM222.989 293.826L223.007 226.527L215.007 226.525L214.989 293.823L222.989 293.826ZM216.166 223.71L170.396 269.887L176.078 275.519L221.848 229.342L216.166 223.71ZM170.396 269.887C152.12 288.325 140.655 299.766 133.639 306.471C130.114 309.84 127.801 311.927 126.347 313.095C125.992 313.381 125.714 313.591 125.501 313.74C125.395 313.815 125.314 313.868 125.254 313.906C125.194 313.944 125.166 313.958 125.169 313.957C125.171 313.956 125.184 313.949 125.208 313.938C125.232 313.927 125.271 313.91 125.325 313.889C125.42 313.853 125.622 313.783 125.908 313.739C126.442 313.657 127.874 313.606 129.069 314.812L123.386 320.443C124.705 321.774 126.327 321.769 127.127 321.646C127.903 321.526 128.531 321.228 128.898 321.035C129.678 320.624 130.517 320.008 131.358 319.331C133.103 317.929 135.63 315.634 139.166 312.254C146.274 305.462 157.818 293.941 176.078 275.519L170.396 269.887ZM129.069 314.812C130.253 316.007 130.196 317.421 130.118 317.934C130.076 318.213 130.008 318.411 129.974 318.503C129.955 318.555 129.938 318.593 129.928 318.616C129.918 318.639 129.911 318.652 129.91 318.653C129.91 318.653 129.925 318.625 129.963 318.563C130.001 318.502 130.055 318.419 130.129 318.312C130.278 318.097 130.486 317.815 130.769 317.457C131.927 315.989 133.996 313.655 137.335 310.097C143.979 303.018 155.317 291.449 173.59 273.007L167.907 267.376C149.651 285.802 138.233 297.45 131.502 304.623C128.152 308.191 125.878 310.741 124.489 312.5C123.819 313.35 123.21 314.194 122.805 314.976C122.615 315.345 122.324 315.969 122.208 316.736C122.09 317.517 122.078 319.123 123.386 320.443L129.069 314.812ZM173.59 273.007L219.352 226.822L213.669 221.191L167.907 267.376L173.59 273.007ZM216.51 220.007H138.13V228.007H216.51V220.007ZM138.13 220.007H59.749V228.007H138.13V220.007ZM56.1681 222.224L51.7611 231.078L58.9229 234.643L63.33 225.789L56.1681 222.224ZM217.993 291.871C217.993 318.473 218.057 335.189 218.245 345.182C218.338 350.158 218.464 353.56 218.638 355.708C218.721 356.732 218.831 357.693 219.015 358.442C219.082 358.715 219.276 359.5 219.806 360.243C220.088 360.637 220.748 361.42 221.923 361.797C223.279 362.233 224.51 361.882 225.314 361.394L221.161 354.556C221.903 354.105 223.074 353.764 224.371 354.181C225.487 354.54 226.089 355.274 226.314 355.59C226.564 355.939 226.681 356.235 226.719 356.337C226.745 356.404 226.761 356.455 226.77 356.485C226.779 356.516 226.784 356.534 226.785 356.538C226.786 356.543 226.779 356.514 226.766 356.44C226.753 356.369 226.738 356.27 226.721 356.139C226.686 355.875 226.65 355.522 226.612 355.061C226.46 353.186 226.337 350.004 226.243 345.031C226.057 335.127 225.993 318.489 225.993 291.871H217.993ZM225.313 361.394C227.558 360.031 233.996 355.213 240.906 349.87C247.921 344.447 255.739 338.236 260.898 333.91L255.758 327.78C250.715 332.008 242.991 338.146 236.013 343.541C228.931 349.016 222.925 353.485 221.162 354.556L225.313 361.394ZM260.898 333.91C286.486 312.458 309.646 289.135 331.099 263.214L324.936 258.113C303.79 283.663 280.972 306.641 255.759 327.78L260.898 333.91ZM331.099 263.214C335.223 258.231 341.86 249.672 347.448 242.267C350.245 238.558 352.8 235.113 354.662 232.523C355.59 231.234 356.367 230.128 356.921 229.297C357.193 228.889 357.444 228.499 357.639 228.165C357.733 228.005 357.852 227.792 357.961 227.561C358.014 227.447 358.095 227.266 358.17 227.044C358.219 226.899 358.393 226.381 358.393 225.704H350.393C350.393 225.057 350.558 224.581 350.589 224.488C350.646 224.318 350.701 224.2 350.72 224.161C350.758 224.078 350.775 224.056 350.733 224.127C350.657 224.258 350.508 224.495 350.265 224.858C349.79 225.571 349.078 226.587 348.168 227.852C346.355 230.372 343.841 233.764 341.061 237.448C335.494 244.827 328.943 253.271 324.936 258.113L331.099 263.214ZM358.393 225.704C358.393 223.947 357.314 222.922 356.92 222.6C356.472 222.233 356.049 222.051 355.886 221.984C355.52 221.835 355.206 221.77 355.108 221.75C354.848 221.697 354.601 221.669 354.456 221.655C354.124 221.621 353.703 221.594 353.244 221.57C352.305 221.523 350.957 221.478 349.268 221.437C345.878 221.353 340.994 221.278 334.988 221.215C322.972 221.089 306.407 221.011 288.193 221.011V229.011C306.388 229.011 322.924 229.089 334.905 229.215C340.898 229.278 345.737 229.352 349.071 229.434C350.743 229.475 352.007 229.518 352.839 229.56C353.266 229.582 353.521 229.601 353.643 229.613C353.724 229.622 353.649 229.617 353.505 229.588C353.464 229.579 353.193 229.527 352.857 229.389C352.708 229.328 352.296 229.152 351.855 228.791C351.467 228.475 350.393 227.456 350.393 225.704H358.393ZM288.193 221.011H221.993V229.011H288.193V221.011ZM217.993 225.011V291.871H225.993V225.011H217.993Z" fill="#E6E9EB" mask="url(#path-1-inside-1_1206_1834)"/>
<mask id="path-3-outside-2_1206_1834" maskUnits="userSpaceOnUse" x="59" y="138" width="647" height="167" fill="black">
<rect fill="white" x="59" y="138" width="647" height="167"/>
<path d="M114.25 230.875H97.75V258.75L79 265V177.5L97.75 183.75V211H114.25L160.25 177.5V202.5L135.25 221.25L160.25 240L160.312 265L114.25 230.875ZM166.5 177.5H254V196.25H185.25V206.062L242.875 206L185.25 227.5V238.375L247.75 214.938V233.75L166.5 265V177.5ZM316.562 177.438H335.25V265L272.75 221.25L272.688 258.75L254 265V177.562L316.5 221.25L316.562 177.438ZM422.75 177.5V196.25H391.5V257.688L372.75 265V196.25H341.5V177.5H422.75ZM429 177.5H516.5V196.25H447.75V206.062L505.375 206L447.75 227.5V238.375L510.25 214.938V233.75L429 265V177.5ZM516.5 177.5H604V196.25H535.25V238.375L597.75 214.938V233.75L516.5 265V177.5ZM622.75 258.75L604 265V177.5L622.75 190V208.562H666.5V183.75L685.25 177.5V265L666.5 252.5V227.5H622.75V258.75Z"/>
</mask>
<path d="M114.25 230.875H97.75V258.75L79 265V177.5L97.75 183.75V211H114.25L160.25 177.5V202.5L135.25 221.25L160.25 240L160.312 265L114.25 230.875ZM166.5 177.5H254V196.25H185.25V206.062L242.875 206L185.25 227.5V238.375L247.75 214.938V233.75L166.5 265V177.5ZM316.562 177.438H335.25V265L272.75 221.25L272.688 258.75L254 265V177.562L316.5 221.25L316.562 177.438ZM422.75 177.5V196.25H391.5V257.688L372.75 265V196.25H341.5V177.5H422.75ZM429 177.5H516.5V196.25H447.75V206.062L505.375 206L447.75 227.5V238.375L510.25 214.938V233.75L429 265V177.5ZM516.5 177.5H604V196.25H535.25V238.375L597.75 214.938V233.75L516.5 265V177.5ZM622.75 258.75L604 265V177.5L622.75 190V208.562H666.5V183.75L685.25 177.5V265L666.5 252.5V227.5H622.75V258.75Z" fill="white"/>
<path d="M114.25 230.875L126.156 214.805L120.851 210.875H114.25V230.875ZM97.75 230.875V210.875H77.75V230.875H97.75ZM97.75 258.75L104.075 277.724L117.75 273.165V258.75H97.75ZM79 265H59V292.749L85.3246 283.974L79 265ZM79 177.5L85.3246 158.526L59 149.751V177.5H79ZM97.75 183.75H117.75V169.335L104.075 164.776L97.75 183.75ZM97.75 211H77.75V231H97.75V211ZM114.25 211V231H120.761L126.024 227.167L114.25 211ZM160.25 177.5H180.25V138.193L148.476 161.333L160.25 177.5ZM160.25 202.5L172.25 218.5L180.25 212.5V202.5H160.25ZM135.25 221.25L123.25 205.25L101.917 221.25L123.25 237.25L135.25 221.25ZM160.25 240L180.25 239.95L180.225 229.981L172.25 224L160.25 240ZM160.312 265L148.407 281.07L180.412 304.781L180.312 264.95L160.312 265ZM114.25 210.875H97.75V250.875H114.25V210.875ZM77.75 230.875V258.75H117.75V230.875H77.75ZM91.4254 239.776L72.6754 246.026L85.3246 283.974L104.075 277.724L91.4254 239.776ZM99 265V177.5H59V265H99ZM72.6754 196.474L91.4254 202.724L104.075 164.776L85.3246 158.526L72.6754 196.474ZM77.75 183.75V211H117.75V183.75H77.75ZM97.75 231H114.25V191H97.75V231ZM126.024 227.167L172.024 193.667L148.476 161.333L102.476 194.833L126.024 227.167ZM140.25 177.5V202.5H180.25V177.5H140.25ZM148.25 186.5L123.25 205.25L147.25 237.25L172.25 218.5L148.25 186.5ZM123.25 237.25L148.25 256L172.25 224L147.25 205.25L123.25 237.25ZM140.25 240.05L140.313 265.05L180.312 264.95L180.25 239.95L140.25 240.05ZM172.218 248.93L126.156 214.805L102.344 246.945L148.407 281.07L172.218 248.93ZM166.5 177.5V157.5H146.5V177.5H166.5ZM254 177.5H274V157.5H254V177.5ZM254 196.25V216.25H274V196.25H254ZM185.25 196.25V176.25H165.25V196.25H185.25ZM185.25 206.062H165.25V226.084L185.272 226.062L185.25 206.062ZM242.875 206L249.866 224.738L242.853 186L242.875 206ZM185.25 227.5L178.259 208.762L165.25 213.615V227.5H185.25ZM185.25 238.375H165.25V267.235L192.272 257.102L185.25 238.375ZM247.75 214.938H267.75V186.077L240.728 196.211L247.75 214.938ZM247.75 233.75L254.93 252.417L267.75 247.486V233.75H247.75ZM166.5 265H146.5V294.121L173.68 283.667L166.5 265ZM166.5 197.5H254V157.5H166.5V197.5ZM234 177.5V196.25H274V177.5H234ZM254 176.25H185.25V216.25H254V176.25ZM165.25 196.25V206.062H205.25V196.25H165.25ZM185.272 226.062L242.897 226L242.853 186L185.228 186.063L185.272 226.062ZM235.884 187.262L178.259 208.762L192.241 246.238L249.866 224.738L235.884 187.262ZM165.25 227.5V238.375H205.25V227.5H165.25ZM192.272 257.102L254.772 233.664L240.728 196.211L178.228 219.648L192.272 257.102ZM227.75 214.938V233.75H267.75V214.938H227.75ZM240.57 215.083L159.32 246.333L173.68 283.667L254.93 252.417L240.57 215.083ZM186.5 265V177.5H146.5V265H186.5ZM316.562 177.438V157.438H296.591L296.563 177.409L316.562 177.438ZM335.25 177.438H355.25V157.438H335.25V177.438ZM335.25 265L323.781 281.385L355.25 303.413V265H335.25ZM272.75 221.25L284.219 204.865L252.814 182.882L252.75 221.217L272.75 221.25ZM272.688 258.75L279.031 277.717L292.664 273.158L292.687 258.783L272.688 258.75ZM254 265H234V292.778L260.344 283.967L254 265ZM254 177.562L265.458 161.17L234 139.181V177.562H254ZM316.5 221.25L305.042 237.642L336.445 259.593L336.5 221.279L316.5 221.25ZM316.562 197.438H335.25V157.438H316.562V197.438ZM315.25 177.438V265H355.25V177.438H315.25ZM346.719 248.615L284.219 204.865L261.281 237.635L323.781 281.385L346.719 248.615ZM252.75 221.217L252.688 258.717L292.687 258.783L292.75 221.283L252.75 221.217ZM266.344 239.783L247.656 246.033L260.344 283.967L279.031 277.717L266.344 239.783ZM274 265V177.562H234V265H274ZM242.542 193.955L305.042 237.642L327.958 204.858L265.458 161.17L242.542 193.955ZM336.5 221.279L336.562 177.466L296.563 177.409L296.5 221.221L336.5 221.279ZM422.75 177.5H442.75V157.5H422.75V177.5ZM422.75 196.25V216.25H442.75V196.25H422.75ZM391.5 196.25V176.25H371.5V196.25H391.5ZM391.5 257.688L398.767 276.321L411.5 271.355V257.688H391.5ZM372.75 265H352.75V294.267L380.017 283.633L372.75 265ZM372.75 196.25H392.75V176.25H372.75V196.25ZM341.5 196.25H321.5V216.25H341.5V196.25ZM341.5 177.5V157.5H321.5V177.5H341.5ZM402.75 177.5V196.25H442.75V177.5H402.75ZM422.75 176.25H391.5V216.25H422.75V176.25ZM371.5 196.25V257.688H411.5V196.25H371.5ZM384.233 239.054L365.483 246.367L380.017 283.633L398.767 276.321L384.233 239.054ZM392.75 265V196.25H352.75V265H392.75ZM372.75 176.25H341.5V216.25H372.75V176.25ZM361.5 196.25V177.5H321.5V196.25H361.5ZM341.5 197.5H422.75V157.5H341.5V197.5ZM429 177.5V157.5H409V177.5H429ZM516.5 177.5H536.5V157.5H516.5V177.5ZM516.5 196.25V216.25H536.5V196.25H516.5ZM447.75 196.25V176.25H427.75V196.25H447.75ZM447.75 206.062H427.75V226.084L447.772 226.062L447.75 206.062ZM505.375 206L512.366 224.738L505.353 186L505.375 206ZM447.75 227.5L440.759 208.762L427.75 213.615V227.5H447.75ZM447.75 238.375H427.75V267.235L454.772 257.102L447.75 238.375ZM510.25 214.938H530.25V186.077L503.228 196.211L510.25 214.938ZM510.25 233.75L517.43 252.417L530.25 247.486V233.75H510.25ZM429 265H409V294.121L436.18 283.667L429 265ZM429 197.5H516.5V157.5H429V197.5ZM496.5 177.5V196.25H536.5V177.5H496.5ZM516.5 176.25H447.75V216.25H516.5V176.25ZM427.75 196.25V206.062H467.75V196.25H427.75ZM447.772 226.062L505.397 226L505.353 186L447.728 186.063L447.772 226.062ZM498.384 187.262L440.759 208.762L454.741 246.238L512.366 224.738L498.384 187.262ZM427.75 227.5V238.375H467.75V227.5H427.75ZM454.772 257.102L517.272 233.664L503.228 196.211L440.728 219.648L454.772 257.102ZM490.25 214.938V233.75H530.25V214.938H490.25ZM503.07 215.083L421.82 246.333L436.18 283.667L517.43 252.417L503.07 215.083ZM449 265V177.5H409V265H449ZM516.5 177.5V157.5H496.5V177.5H516.5ZM604 177.5H624V157.5H604V177.5ZM604 196.25V216.25H624V196.25H604ZM535.25 196.25V176.25H515.25V196.25H535.25ZM535.25 238.375H515.25V267.235L542.272 257.102L535.25 238.375ZM597.75 214.938H617.75V186.077L590.728 196.211L597.75 214.938ZM597.75 233.75L604.93 252.417L617.75 247.486V233.75H597.75ZM516.5 265H496.5V294.121L523.68 283.667L516.5 265ZM516.5 197.5H604V157.5H516.5V197.5ZM584 177.5V196.25H624V177.5H584ZM604 176.25H535.25V216.25H604V176.25ZM515.25 196.25V238.375H555.25V196.25H515.25ZM542.272 257.102L604.772 233.664L590.728 196.211L528.228 219.648L542.272 257.102ZM577.75 214.938V233.75H617.75V214.938H577.75ZM590.57 215.083L509.32 246.333L523.68 283.667L604.93 252.417L590.57 215.083ZM536.5 265V177.5H496.5V265H536.5ZM622.75 258.75L629.075 277.724L642.75 273.165V258.75H622.75ZM604 265H584V292.749L610.325 283.974L604 265ZM604 177.5L615.094 160.859L584 140.13V177.5H604ZM622.75 190H642.75V179.296L633.844 173.359L622.75 190ZM622.75 208.562H602.75V228.562H622.75V208.562ZM666.5 208.562V228.562H686.5V208.562H666.5ZM666.5 183.75L660.175 164.776L646.5 169.335V183.75H666.5ZM685.25 177.5H705.25V149.751L678.925 158.526L685.25 177.5ZM685.25 265L674.156 281.641L705.25 302.37V265H685.25ZM666.5 252.5H646.5V263.204L655.406 269.141L666.5 252.5ZM666.5 227.5H686.5V207.5H666.5V227.5ZM622.75 227.5V207.5H602.75V227.5H622.75ZM616.425 239.776L597.675 246.026L610.325 283.974L629.075 277.724L616.425 239.776ZM624 265V177.5H584V265H624ZM592.906 194.141L611.656 206.641L633.844 173.359L615.094 160.859L592.906 194.141ZM602.75 190V208.562H642.75V190H602.75ZM622.75 228.562H666.5V188.562H622.75V228.562ZM686.5 208.562V183.75H646.5V208.562H686.5ZM672.825 202.724L691.575 196.474L678.925 158.526L660.175 164.776L672.825 202.724ZM665.25 177.5V265H705.25V177.5H665.25ZM696.344 248.359L677.594 235.859L655.406 269.141L674.156 281.641L696.344 248.359ZM686.5 252.5V227.5H646.5V252.5H686.5ZM666.5 207.5H622.75V247.5H666.5V207.5ZM602.75 227.5V258.75H642.75V227.5H602.75Z" fill="#082032" mask="url(#path-3-outside-2_1206_1834)"/>
<mask id="path-5-outside-3_1206_1834" maskUnits="userSpaceOnUse" x="686" y="136" width="472" height="167" fill="black">
<rect fill="white" x="686" y="136" width="472" height="167"/>
<path d="M706 177.5H793.5V196.25H724.75V238.375L768.5 222L731.062 206.812H787.25V229.062V233.75L706 265V177.5ZM874.75 265L856 252.5V225.625H812.25V258.75L793.5 265V177.5H874.75V265ZM812.25 196.25V206.688H856V196.25H812.25ZM899.75 258.75L881 265V177.5L921.875 208.75L962.25 177.5V265L943.5 258.75V217.562L921.625 233.438L899.75 217.75V258.75ZM968.5 177.5H1056V196.25H987.25V206.062L1044.88 206L987.25 227.5V238.375L1049.75 214.938V233.75L968.5 265V177.5ZM1137.25 196.25H1049.75V177.5H1137.25V196.25ZM1060.88 206L1137.25 206.062V265L1056 233.75V214.938L1118.5 238.375V227.5L1060.88 206Z"/>
</mask>
<path d="M706 177.5H793.5V196.25H724.75V238.375L768.5 222L731.062 206.812H787.25V229.062V233.75L706 265V177.5ZM874.75 265L856 252.5V225.625H812.25V258.75L793.5 265V177.5H874.75V265ZM812.25 196.25V206.688H856V196.25H812.25ZM899.75 258.75L881 265V177.5L921.875 208.75L962.25 177.5V265L943.5 258.75V217.562L921.625 233.438L899.75 217.75V258.75ZM968.5 177.5H1056V196.25H987.25V206.062L1044.88 206L987.25 227.5V238.375L1049.75 214.938V233.75L968.5 265V177.5ZM1137.25 196.25H1049.75V177.5H1137.25V196.25ZM1060.88 206L1137.25 206.062V265L1056 233.75V214.938L1118.5 238.375V227.5L1060.88 206Z" fill="#FF4C29"/>
<path d="M706 177.5V157.5H686V177.5H706ZM793.5 177.5H813.5V157.5H793.5V177.5ZM793.5 196.25V216.25H813.5V196.25H793.5ZM724.75 196.25V176.25H704.75V196.25H724.75ZM724.75 238.375H704.75V267.216L731.761 257.106L724.75 238.375ZM768.5 222L775.511 240.731L823.552 222.75L776.018 203.467L768.5 222ZM731.062 206.812V186.812L723.544 225.346L731.062 206.812ZM787.25 206.812H807.25V186.812H787.25V206.812ZM787.25 233.75L794.43 252.417L807.25 247.486V233.75H787.25ZM706 265H686V294.121L713.18 283.667L706 265ZM706 197.5H793.5V157.5H706V197.5ZM773.5 177.5V196.25H813.5V177.5H773.5ZM793.5 176.25H724.75V216.25H793.5V176.25ZM704.75 196.25V238.375H744.75V196.25H704.75ZM731.761 257.106L775.511 240.731L761.489 203.269L717.739 219.644L731.761 257.106ZM776.018 203.467L738.581 188.279L723.544 225.346L760.982 240.533L776.018 203.467ZM731.062 226.812H787.25V186.812H731.062V226.812ZM767.25 206.812V229.062H807.25V206.812H767.25ZM767.25 229.062V233.75H807.25V229.062H767.25ZM780.07 215.083L698.82 246.333L713.18 283.667L794.43 252.417L780.07 215.083ZM726 265V177.5H686V265H726ZM874.75 265L863.656 281.641L894.75 302.37V265H874.75ZM856 252.5H836V263.204L844.906 269.141L856 252.5ZM856 225.625H876V205.625H856V225.625ZM812.25 225.625V205.625H792.25V225.625H812.25ZM812.25 258.75L818.575 277.724L832.25 273.165V258.75H812.25ZM793.5 265H773.5V292.749L799.825 283.974L793.5 265ZM793.5 177.5V157.5H773.5V177.5H793.5ZM874.75 177.5H894.75V157.5H874.75V177.5ZM812.25 196.25V176.25H792.25V196.25H812.25ZM812.25 206.688H792.25V226.688H812.25V206.688ZM856 206.688V226.688H876V206.688H856ZM856 196.25H876V176.25H856V196.25ZM885.844 248.359L867.094 235.859L844.906 269.141L863.656 281.641L885.844 248.359ZM876 252.5V225.625H836V252.5H876ZM856 205.625H812.25V245.625H856V205.625ZM792.25 225.625V258.75H832.25V225.625H792.25ZM805.925 239.776L787.175 246.026L799.825 283.974L818.575 277.724L805.925 239.776ZM813.5 265V177.5H773.5V265H813.5ZM793.5 197.5H874.75V157.5H793.5V197.5ZM854.75 177.5V265H894.75V177.5H854.75ZM792.25 196.25V206.688H832.25V196.25H792.25ZM812.25 226.688H856V186.688H812.25V226.688ZM876 206.688V196.25H836V206.688H876ZM856 176.25H812.25V216.25H856V176.25ZM899.75 258.75L906.075 277.724L919.75 273.165V258.75H899.75ZM881 265H861V292.749L887.325 283.974L881 265ZM881 177.5L893.147 161.611L861 137.034V177.5H881ZM921.875 208.75L909.728 224.639L921.95 233.983L934.116 224.566L921.875 208.75ZM962.25 177.5H982.25V136.729L950.009 161.684L962.25 177.5ZM962.25 265L955.925 283.974L982.25 292.749V265H962.25ZM943.5 258.75H923.5V273.165L937.175 277.724L943.5 258.75ZM943.5 217.562H963.5V178.337L931.753 201.376L943.5 217.562ZM921.625 233.438L909.97 249.69L921.695 258.099L933.372 249.624L921.625 233.438ZM899.75 217.75L911.405 201.497L879.75 178.796V217.75H899.75ZM893.425 239.776L874.675 246.026L887.325 283.974L906.075 277.724L893.425 239.776ZM901 265V177.5H861V265H901ZM868.853 193.389L909.728 224.639L934.022 192.861L893.147 161.611L868.853 193.389ZM934.116 224.566L974.491 193.316L950.009 161.684L909.634 192.934L934.116 224.566ZM942.25 177.5V265H982.25V177.5H942.25ZM968.575 246.026L949.825 239.776L937.175 277.724L955.925 283.974L968.575 246.026ZM963.5 258.75V217.562H923.5V258.75H963.5ZM931.753 201.376L909.878 217.251L933.372 249.624L955.247 233.749L931.753 201.376ZM933.28 217.185L911.405 201.497L888.095 234.003L909.97 249.69L933.28 217.185ZM879.75 217.75V258.75H919.75V217.75H879.75ZM968.5 177.5V157.5H948.5V177.5H968.5ZM1056 177.5H1076V157.5H1056V177.5ZM1056 196.25V216.25H1076V196.25H1056ZM987.25 196.25V176.25H967.25V196.25H987.25ZM987.25 206.062H967.25V226.084L987.272 226.062L987.25 206.062ZM1044.88 206L1051.87 224.738L1044.85 186L1044.88 206ZM987.25 227.5L980.259 208.762L967.25 213.615V227.5H987.25ZM987.25 238.375H967.25V267.235L994.272 257.102L987.25 238.375ZM1049.75 214.938H1069.75V186.077L1042.73 196.211L1049.75 214.938ZM1049.75 233.75L1056.93 252.417L1069.75 247.486V233.75H1049.75ZM968.5 265H948.5V294.121L975.68 283.667L968.5 265ZM968.5 197.5H1056V157.5H968.5V197.5ZM1036 177.5V196.25H1076V177.5H1036ZM1056 176.25H987.25V216.25H1056V176.25ZM967.25 196.25V206.062H1007.25V196.25H967.25ZM987.272 226.062L1044.9 226L1044.85 186L987.228 186.063L987.272 226.062ZM1037.88 187.262L980.259 208.762L994.241 246.238L1051.87 224.738L1037.88 187.262ZM967.25 227.5V238.375H1007.25V227.5H967.25ZM994.272 257.102L1056.77 233.664L1042.73 196.211L980.228 219.648L994.272 257.102ZM1029.75 214.938V233.75H1069.75V214.938H1029.75ZM1042.57 215.083L961.32 246.333L975.68 283.667L1056.93 252.417L1042.57 215.083ZM988.5 265V177.5H948.5V265H988.5ZM1137.25 196.25V216.25H1157.25V196.25H1137.25ZM1049.75 196.25H1029.75V216.25H1049.75V196.25ZM1049.75 177.5V157.5H1029.75V177.5H1049.75ZM1137.25 177.5H1157.25V157.5H1137.25V177.5ZM1060.88 206L1060.89 186L1053.88 224.738L1060.88 206ZM1137.25 206.062H1157.25V186.079L1137.27 186.063L1137.25 206.062ZM1137.25 265L1130.07 283.667L1157.25 294.121V265H1137.25ZM1056 233.75H1036V247.486L1048.82 252.417L1056 233.75ZM1056 214.938L1063.02 196.211L1036 186.077V214.938H1056ZM1118.5 238.375L1111.48 257.102L1138.5 267.235V238.375H1118.5ZM1118.5 227.5H1138.5V213.615L1125.49 208.762L1118.5 227.5ZM1137.25 176.25H1049.75V216.25H1137.25V176.25ZM1069.75 196.25V177.5H1029.75V196.25H1069.75ZM1049.75 197.5H1137.25V157.5H1049.75V197.5ZM1117.25 177.5V196.25H1157.25V177.5H1117.25ZM1060.86 226L1137.23 226.062L1137.27 186.063L1060.89 186L1060.86 226ZM1117.25 206.062V265H1157.25V206.062H1117.25ZM1144.43 246.333L1063.18 215.083L1048.82 252.417L1130.07 283.667L1144.43 246.333ZM1076 233.75V214.938H1036V233.75H1076ZM1048.98 233.664L1111.48 257.102L1125.52 219.648L1063.02 196.211L1048.98 233.664ZM1138.5 238.375V227.5H1098.5V238.375H1138.5ZM1125.49 208.762L1067.87 187.262L1053.88 224.738L1111.51 246.238L1125.49 208.762Z" fill="#082032" mask="url(#path-5-outside-3_1206_1834)"/>
</svg>
